# xmcd
#
# Track frame offsets: 
#        150
#        22318
#        45320
#        68192
#        86110
#        114977
#        132991
#        153575
#        169347
#        189134
#        204236
#        223548
#
# Disc length: 3281 seconds
#
# Revision: 16
# Processed by: cddbd v1.5.2PL0 Copyright (c) Steve Scherf et al.
# Submitted via: ExactAudioCopy v1.3
#
DISCID=a40ccf0c
DTITLE=Ali Farka Touré and Toumani Diabaté - In The Heart Of The Moon
DYEAR=2005
DGENRE=Blues
TTITLE0=Debe
TTITLE1=Kala
TTITLE2=Mamadou Boutiquier
TTITLE3=Monsieur Le Maire De Niafunké
TTITLE4=Kaira
TTITLE5=Simbo
TTITLE6=Ai Ga Bani
TTITLE7=Soumbou Ya Ya
TTITLE8=Naweye Toro
TTITLE9=Kadi Kadi
TTITLE10=Gomni
TTITLE11=Hawa Dolo
EXTD=YEAR: 2005
EXTT0=
EXTT1=
EXTT2=
EXTT3=
EXTT4=
EXTT5=
EXTT6=
EXTT7=
EXTT8=
EXTT9=
EXTT10=
EXTT11=
PLAYORDER=
